<svg width="209" height="51" viewBox="0 0 209 51" fill="none" xmlns="http://www.w3.org/2000/svg">
<path d="M15.1808 11.024C18.3488 11.024 20.9088 12.032 22.8608 14.048C24.8128 16.032 25.7888 18.816 25.7888 22.4V38H19.0688V23.312C19.0688 21.2 18.5408 19.584 17.4848 18.464C16.4288 17.312 14.9888 16.736 13.1648 16.736C11.3088 16.736 9.83681 17.312 8.74881 18.464C7.69281 19.584 7.16481 21.2 7.16481 23.312V38H0.444813V11.408H7.16481V14.72C8.06081 13.568 9.19681 12.672 10.5728 12.032C11.9808 11.36 13.5168 11.024 15.1808 11.024ZM42.9872 38.432C40.4272 38.432 38.1232 37.872 36.0752 36.752C34.0272 35.6 32.4112 33.984 31.2272 31.904C30.0752 29.824 29.4992 27.424 29.4992 24.704C29.4992 21.984 30.0912 19.584 31.2752 17.504C32.4912 15.424 34.1392 13.824 36.2192 12.704C38.2992 11.552 40.6192 10.976 43.1792 10.976C45.7392 10.976 48.0592 11.552 50.1392 12.704C52.2192 13.824 53.8512 15.424 55.0352 17.504C56.2512 19.584 56.8592 21.984 56.8592 24.704C56.8592 27.424 56.2352 29.824 54.9872 31.904C53.7712 33.984 52.1072 35.6 49.9952 36.752C47.9152 37.872 45.5792 38.432 42.9872 38.432ZM42.9872 32.576C44.2032 32.576 45.3392 32.288 46.3952 31.712C47.4832 31.104 48.3472 30.208 48.9872 29.024C49.6272 27.84 49.9472 26.4 49.9472 24.704C49.9472 22.176 49.2752 20.24 47.9312 18.896C46.6192 17.52 45.0032 16.832 43.0832 16.832C41.1632 16.832 39.5472 17.52 38.2352 18.896C36.9552 20.24 36.3152 22.176 36.3152 24.704C36.3152 27.232 36.9392 29.184 38.1872 30.56C39.4672 31.904 41.0672 32.576 42.9872 32.576ZM68.6126 16.928V29.792C68.6126 30.688 68.8206 31.344 69.2366 31.76C69.6846 32.144 70.4206 32.336 71.4446 32.336H74.5646V38H70.3406C64.6766 38 61.8446 35.248 61.8446 29.744V16.928H58.6766V11.408H61.8446V4.832H68.6126V11.408H74.5646V16.928H68.6126ZM81.8059 8.24C80.6219 8.24 79.6299 7.872 78.8299 7.136C78.0619 6.368 77.6779 5.424 77.6779 4.304C77.6779 3.184 78.0619 2.256 78.8299 1.52C79.6299 0.751998 80.6219 0.367998 81.8059 0.367998C82.9899 0.367998 83.9659 0.751998 84.7339 1.52C85.5339 2.256 85.9339 3.184 85.9339 4.304C85.9339 5.424 85.5339 6.368 84.7339 7.136C83.9659 7.872 82.9899 8.24 81.8059 8.24ZM85.1179 11.408V38H78.3979V11.408H85.1179ZM102.949 16.928H98.2933V38H91.4773V16.928H88.4533V11.408H91.4773V10.064C91.4773 6.8 92.4053 4.4 94.2613 2.864C96.1173 1.328 98.9173 0.607999 102.661 0.704V6.368C101.029 6.336 99.8933 6.608 99.2533 7.184C98.6133 7.76 98.2933 8.8 98.2933 10.304V11.408H102.949V16.928ZM131.744 11.408L115.28 50.576H108.128L113.888 37.328L103.232 11.408H110.768L117.632 29.984L124.592 11.408H131.744Z" fill="#8B95A3"/>
<path d="M132.639 24.704C132.639 21.952 133.199 19.552 134.319 17.504C135.439 15.424 136.991 13.824 138.975 12.704C140.959 11.552 143.231 10.976 145.791 10.976C149.087 10.976 151.807 11.808 153.951 13.472C156.127 15.104 157.583 17.408 158.319 20.384H151.071C150.687 19.232 150.031 18.336 149.103 17.696C148.207 17.024 147.087 16.688 145.743 16.688C143.823 16.688 142.303 17.392 141.183 18.8C140.063 20.176 139.503 22.144 139.503 24.704C139.503 27.232 140.063 29.2 141.183 30.608C142.303 31.984 143.823 32.672 145.743 32.672C148.463 32.672 150.239 31.456 151.071 29.024H158.319C157.583 31.904 156.127 34.192 153.951 35.888C151.775 37.584 149.055 38.432 145.791 38.432C143.231 38.432 140.959 37.872 138.975 36.752C136.991 35.6 135.439 34 134.319 31.952C133.199 29.872 132.639 27.456 132.639 24.704ZM160.514 24.608C160.514 21.92 161.042 19.536 162.098 17.456C163.186 15.376 164.642 13.776 166.466 12.656C168.322 11.536 170.386 10.976 172.658 10.976C174.642 10.976 176.37 11.376 177.842 12.176C179.346 12.976 180.546 13.984 181.442 15.2V11.408H188.21V38H181.442V34.112C180.578 35.36 179.378 36.4 177.842 37.232C176.338 38.032 174.594 38.432 172.61 38.432C170.37 38.432 168.322 37.856 166.466 36.704C164.642 35.552 163.186 33.936 162.098 31.856C161.042 29.744 160.514 27.328 160.514 24.608ZM181.442 24.704C181.442 23.072 181.122 21.68 180.482 20.528C179.842 19.344 178.978 18.448 177.89 17.84C176.802 17.2 175.634 16.88 174.386 16.88C173.138 16.88 171.986 17.184 170.93 17.792C169.874 18.4 169.01 19.296 168.338 20.48C167.698 21.632 167.378 23.008 167.378 24.608C167.378 26.208 167.698 27.616 168.338 28.832C169.01 30.016 169.874 30.928 170.93 31.568C172.018 32.208 173.17 32.528 174.386 32.528C175.634 32.528 176.802 32.224 177.89 31.616C178.978 30.976 179.842 30.08 180.482 28.928C181.122 27.744 181.442 26.336 181.442 24.704ZM200.493 15.536C201.357 14.128 202.477 13.024 203.853 12.224C205.261 11.424 206.861 11.024 208.653 11.024V18.08H206.877C204.765 18.08 203.165 18.576 202.077 19.568C201.021 20.56 200.493 22.288 200.493 24.752V38H193.773V11.408H200.493V15.536Z" fill="#C8000A"/>
</svg>
